<svg width="400" height="400" viewBox="0 0 400 400" fill="none" xmlns="http://www.w3.org/2000/svg">
<g clip-path="url(#clip0_3818_7562)">
<circle cx="200" cy="200" r="200" fill="#0B0B0E"/>
<path d="M205.045 162.274V131.534C189.908 120.589 171.278 115 149.155 115C101.415 115 62.9902 153.425 62.9902 200C62.9902 246.575 101.415 285 149.155 285C171.278 285 189.976 279.504 205.045 268.466C213.002 262.637 219.479 256.419 225.038 249.995C237.422 235.68 245.243 220.338 254.694 205.982C260.106 198.921 268.501 194.644 278.592 194.644C296.291 194.644 308.866 208.151 308.866 226.781C308.866 245.411 296.291 258.918 278.592 258.918C268.432 258.918 258.988 252.96 253.761 247.596L252.412 247.411C251.226 249.301 248.034 254.324 245.566 257.637C243.147 260.883 239.3 265.335 237.74 267.12L238.21 269.048C248.61 278.974 262.78 285 278.592 285C311.195 285 336.811 259.384 336.811 226.781C336.811 194.178 311.195 168.562 278.592 168.562C257.847 168.562 239.93 178.933 229.642 194.877C229.3 195.43 228.961 195.985 228.628 196.542C227.917 197.771 227.254 199.026 226.562 200.271C222.489 207.598 212.552 224.729 203.345 234.815C191.398 247.903 169.881 256.589 149.155 256.589C118.415 256.589 93.73 231.438 93.73 200C93.73 168.562 118.415 143.411 149.155 143.411C169.881 143.411 188.744 150.63 203.881 163.438L205.045 162.274Z" fill="white"/>
</g>
<defs>
<clipPath id="clip0_3818_7562">
<rect width="400" height="400" fill="white"/>
</clipPath>
</defs>
</svg>
