<svg width="400" height="400" viewBox="0 0 400 400" fill="none" xmlns="http://www.w3.org/2000/svg">
<g clip-path="url(#clip0_3818_7566)">
<circle cx="200" cy="200" r="200" fill="white"/>
<path d="M205.047 162.274V131.534C189.91 120.589 171.28 115 149.157 115C101.417 115 62.9922 153.425 62.9922 200C62.9922 246.575 101.417 285 149.157 285C171.28 285 189.978 279.504 205.047 268.466C213.004 262.637 219.481 256.419 225.04 249.995C237.424 235.68 245.245 220.338 254.696 205.982C260.108 198.921 268.503 194.644 278.594 194.644C296.293 194.644 308.868 208.151 308.868 226.781C308.868 245.411 296.293 258.918 278.594 258.918C268.434 258.918 258.99 252.96 253.763 247.596L252.414 247.411C251.228 249.301 248.036 254.324 245.567 257.637C243.149 260.883 239.302 265.335 237.742 267.12L238.212 269.048C248.612 278.974 262.781 285 278.594 285C311.197 285 336.813 259.384 336.813 226.781C336.813 194.178 311.197 168.562 278.594 168.562C257.849 168.562 239.932 178.933 229.644 194.877C229.302 195.43 228.963 195.985 228.63 196.542C227.919 197.771 227.256 199.026 226.564 200.271C222.49 207.598 212.554 224.729 203.347 234.815C191.4 247.903 169.883 256.589 149.157 256.589C118.417 256.589 93.7319 231.438 93.7319 200C93.7319 168.562 118.417 143.411 149.157 143.411C169.883 143.411 188.746 150.63 203.883 163.438L205.047 162.274Z" fill="#0B0B0E"/>
</g>
<defs>
<clipPath id="clip0_3818_7566">
<rect width="400" height="400" fill="white"/>
</clipPath>
</defs>
</svg>
